<?xml version="1.0" encoding="UTF-8" standalone="no"?>
<!-- Created with Inkscape (http://www.inkscape.org/) -->

<svg
   xmlns:dc="http://purl.org/dc/elements/1.1/"
   xmlns:cc="http://creativecommons.org/ns#"
   xmlns:rdf="http://www.w3.org/1999/02/22-rdf-syntax-ns#"
   xmlns:svg="http://www.w3.org/2000/svg"
   xmlns="http://www.w3.org/2000/svg"
   xmlns:xlink="http://www.w3.org/1999/xlink"
   xmlns:sodipodi="http://sodipodi.sourceforge.net/DTD/sodipodi-0.dtd"
   xmlns:inkscape="http://www.inkscape.org/namespaces/inkscape"
   width="37.887104"
   height="40.066025"
   version="1.1"
   inkscape:version="0.48.2 r9819"
   id="svg2"
   sodipodi:docname="blot.svg">
  <sodipodi:namedview
     pagecolor="#ffffff"
     bordercolor="#666666"
     borderopacity="1"
     objecttolerance="10"
     gridtolerance="10"
     guidetolerance="10"
     inkscape:pageopacity="0"
     inkscape:pageshadow="2"
     inkscape:window-width="1680"
     inkscape:window-height="987"
     id="namedview8"
     showgrid="false"
     inkscape:zoom="2"
     inkscape:cx="-10.906967"
     inkscape:cy="9.6161728"
     inkscape:window-x="-8"
     inkscape:window-y="-8"
     inkscape:window-maximized="1"
     inkscape:current-layer="layer1">
    <inkscape:grid
       type="xygrid"
       id="grid2991"
       empspacing="4"
       visible="true"
       enabled="true"
       snapvisiblegridlinesonly="true" />
  </sodipodi:namedview>
  <defs
     id="defs4">
    <linearGradient
       id="linearGradient3816">
      <stop
         style="stop-color:#9b87b9;stop-opacity:1;"
         offset="0"
         id="stop3818" />
      <stop
         style="stop-color:#5500d4;stop-opacity:0.70642203;"
         offset="1"
         id="stop3820" />
    </linearGradient>
    <linearGradient
       id="linearGradient3763">
      <stop
         style="stop-color:#000066;stop-opacity:1;"
         offset="0"
         id="stop3765" />
      <stop
         style="stop-color:#000033;stop-opacity:1;"
         offset="1"
         id="stop3767" />
    </linearGradient>
    <radialGradient
       inkscape:collect="always"
       xlink:href="#linearGradient3763"
       id="radialGradient3771"
       cx="96.700684"
       cy="104.40267"
       fx="96.700684"
       fy="104.40267"
       r="77.44355"
       gradientTransform="matrix(1,0,0,1.0575109,0,-7.5174139)"
       gradientUnits="userSpaceOnUse" />
    <radialGradient
       inkscape:collect="always"
       xlink:href="#linearGradient3816"
       id="radialGradient3822"
       cx="137.32295"
       cy="765.1026"
       fx="137.32295"
       fy="765.1026"
       r="8.6618071"
       gradientTransform="matrix(2.9322063,-0.05457521,0.04812665,2.5857383,-300.7468,-1204.6554)"
       gradientUnits="userSpaceOnUse" />
  </defs>
  <metadata
     id="metadata7">
    <rdf:RDF>
      <cc:Work
         rdf:about="">
        <dc:format>image/svg+xml</dc:format>
        <dc:type
           rdf:resource="http://purl.org/dc/dcmitype/StillImage" />
        <dc:title></dc:title>
      </cc:Work>
    </rdf:RDF>
  </metadata>
  <g
     inkscape:label="Layer 1"
     inkscape:groupmode="layer"
     id="layer1"
     transform="translate(-122.55645,-744.7505)">
    <path
       sodipodi:type="star"
       style="fill:url(#radialGradient3771);fill-opacity:1;stroke:none"
       id="path3028"
       sodipodi:sides="8"
       sodipodi:cx="85.714287"
       sodipodi:cy="117.36218"
       sodipodi:r1="39.755634"
       sodipodi:r2="80.622581"
       sodipodi:arg1="0.19528138"
       sodipodi:arg2="0.58798042"
       inkscape:flatsided="false"
       inkscape:rounded="0.4"
       inkscape:randomized="0.219"
       d="M 117.56286,136.69867 C 112.38844,152.6188 173.9036,162.10889 168.37177,178.1837 162.83993,194.25852 112.22789,158.12953 94.066358,163.49612 75.904825,168.86271 119.3228,208.11948 103.10543,212.37486 86.888058,216.63024 89.485672,161.78201 71.511606,162.72318 53.53754,163.66436 42.626416,204.06549 28.048234,192.77687 13.470052,181.48826 53.18864,156.40151 44.144127,138.62211 35.099615,120.84271 16.143415,139.77338 15.503966,120.96997 14.864517,102.16657 31.255596,110.06148 36.071498,92.081328 40.8874,74.101174 8.0983209,87.421161 14.725135,69.998892 21.351949,52.576623 41.08247,95.686678 58.98706,91.009631 76.891649,86.332584 59.258372,52.104862 78.122996,50.05201 96.987622,47.999158 65.266482,80.579638 84.062777,85.406456 102.85907,90.233273 120.51005,39.44264 133.72877,50.356936 146.94748,61.271233 109.9056,78.371328 118.25186,93.566528 126.59812,108.76173 161.35085,76.384416 167.62928,94.950534 173.90771,113.51665 122.73727,120.77855 117.56286,136.69867 z"
       inkscape:transform-center-x="-1.7037414"
       inkscape:transform-center-y="-5.145011"
       transform="matrix(0.2446111,0,0,0.2446111,119.17177,732.80968)" />
    <path
       id="path2987"
       style="fill:url(#radialGradient3822);fill-opacity:1;stroke:none"
       d="M 138.08502,763.62096 C 139.533,763.04256 138.37867,766.66069 139.8139,766.77118 141.53602,766.90376 138.55175,764.14958 140.62268,761.9254 141.28815,761.2107 140.7901,759.92565 141.43714,759.8311 143.77457,759.48953 141.82413,765.24311 143.03253,765.96798 143.63003,766.32639 143.86595,765.84192 143.72526,764.45471 143.59311,763.15171 143.73569,761.39436 144.26528,760.15514 144.75365,759.01235 144.91085,758.7737 146.24333,758.78003 149.87474,758.79726 144.80376,762.96266 145.82788,766.53544 146.73624,769.70438 143.63916,767.48802 142.31865,767.72811 140.99814,767.9682 140.94464,769.12701 139.69043,769.54451 138.08663,770.07839 135.82311,765.76995 136.29875,764.28218 136.43573,763.85375 136.63705,764.19936 138.08502,763.62096 z M 134.18145,757.21925 C 132.30125,757.25718 130.60715,757.62463 130.36895,758.0005 129.73374,759.00283 131.80136,763.89254 132.4627,767.03175 132.85181,768.87876 131.16252,771.2626 134.1502,770.688 137.13788,770.11341 133.56607,765.46881 134.49395,763.7505 135.63991,761.62836 138.05322,763.85071 139.36895,761.21925 140.97989,757.99737 137.31512,757.15603 134.18145,757.21925 z M 134.61895,758.84425 C 135.64192,758.77294 136.86265,758.93767 136.99395,759.78175 137.20403,761.13227 134.22042,761.54195 133.6502,761.03175 133.07998,760.52155 132.65872,759.41061 133.24395,759.1255 133.46341,759.01858 134.00517,758.88704 134.61895,758.84425 z"
       inkscape:connector-curvature="0"
       sodipodi:nodetypes="ssssssssssscssssssssssscs" />
  </g>
</svg>
